<?xml version="1.0" standalone="no"?>
<!DOCTYPE svg PUBLIC "-//W3C//DTD SVG 20010904//EN"
 "http://www.w3.org/TR/2001/REC-SVG-20010904/DTD/svg10.dtd">
<svg version="1.0" xmlns="http://www.w3.org/2000/svg"
 width="128.000000pt" height="128.000000pt" viewBox="0 0 128.000000 128.000000"
 preserveAspectRatio="xMidYMid meet">
<metadata>
Created by potrace 1.14, written by Peter Selinger 2001-2017
</metadata>
<g transform="translate(0.000000,128.000000) scale(0.100000,-0.100000)"
fill="#000000" stroke="none">
<path d="M0 640 l0 -640 640 0 640 0 0 640 0 640 -640 0 -640 0 0 -640z m1040
-5 l0 -205 -395 0 -395 0 0 205 0 205 395 0 395 0 0 -205z"/>
<path d="M290 635 l0 -165 355 0 355 0 0 165 0 165 -355 0 -355 0 0 -165z
m120 110 c6 -8 8 -19 5 -26 -4 -6 -7 -51 -6 -100 l2 -89 -26 0 -26 0 2 103 c2
118 17 151 49 112z m81 -10 c47 -30 64 -109 33 -153 -15 -22 -63 -52 -84 -52
-5 0 -10 11 -10 25 0 14 5 25 12 25 24 0 48 34 48 67 0 27 -6 37 -30 51 -37
21 -43 64 -7 54 12 -4 29 -11 38 -17z m197 17 c9 -6 1 -34 -35 -115 -43 -99
-62 -123 -78 -97 -3 5 10 47 31 92 20 46 40 93 45 106 9 24 17 26 37 14z m172
-11 c0 -12 -11 -25 -27 -33 -33 -16 -52 -61 -37 -86 6 -9 23 -23 37 -30 16 -8
27 -21 27 -33 0 -38 -71 -15 -100 33 -24 39 -25 69 -5 108 26 50 105 80 105
41z m58 -175 c5 -24 -10 -38 -31 -30 -20 7 -23 40 -4 47 19 8 32 2 35 -17z"/>
</g>
</svg>
